<svg width="22" height="22" viewBox="0 0 22 22" fill="none" xmlns="http://www.w3.org/2000/svg">
<path d="M8.39684 9.96286C8.30518 9.9537 8.19518 9.9537 8.09434 9.96286C5.91268 9.88953 4.18018 8.10203 4.18018 5.90203C4.18018 3.6562 5.99518 1.83203 8.25018 1.83203C10.496 1.83203 12.3202 3.6562 12.3202 5.90203C12.311 8.10203 10.5785 9.88953 8.39684 9.96286Z" stroke="#0085F2" stroke-width="1.5" stroke-linecap="round" stroke-linejoin="round"/>
<path d="M15.0425 3.66797C16.8208 3.66797 18.2508 5.10714 18.2508 6.8763C18.2508 8.6088 16.8758 10.0205 15.1617 10.0846C15.0883 10.0755 15.0058 10.0755 14.9233 10.0846" stroke="#0085F2" stroke-width="1.5" stroke-linecap="round" stroke-linejoin="round"/>
<path d="M3.81316 13.348C1.59483 14.833 1.59483 17.253 3.81316 18.7288C6.334 20.4155 10.4682 20.4155 12.989 18.7288C15.2073 17.2438 15.2073 14.8238 12.989 13.348C10.4773 11.6705 6.34316 11.6705 3.81316 13.348Z" stroke="#0085F2" stroke-width="1.5" stroke-linecap="round" stroke-linejoin="round"/>
<path d="M16.8115 18.332C17.4715 18.1945 18.0949 17.9287 18.6082 17.5345C20.0382 16.462 20.0382 14.6929 18.6082 13.6204C18.104 13.2354 17.4899 12.9787 16.839 12.832" stroke="#0085F2" stroke-width="1.5" stroke-linecap="round" stroke-linejoin="round"/>
</svg>
